<?xml version="1.0" standalone="no"?>
<!DOCTYPE svg PUBLIC "-//W3C//DTD SVG 20010904//EN"
 "http://www.w3.org/TR/2001/REC-SVG-20010904/DTD/svg10.dtd">
<svg version="1.0" xmlns="http://www.w3.org/2000/svg"
 width="115.000000pt" height="115.000000pt" viewBox="0 0 115.000000 115.000000"
 preserveAspectRatio="xMidYMid meet">

<g transform="translate(0.000000,115.000000) scale(0.100000,-0.100000)"
fill="#000000" stroke="none">
<path d="M431 1134 c-266 -71 -448 -327 -427 -598 31 -382 407 -625 771 -497
118 42 233 139 298 252 69 118 94 282 63 413 -50 211 -213 378 -421 431 -74
19 -212 18 -284 -1z m318 -40 c363 -121 491 -570 246 -864 -19 -23 -47 -52
-62 -63 l-26 -20 12 21 c17 32 13 103 -8 138 -19 31 -73 63 -108 65 -10 0 0 7
22 15 61 22 85 55 85 117 0 103 -42 127 -220 127 -67 0 -120 4 -120 9 0 22
-55 72 -91 83 l-40 12 43 20 c73 36 97 116 53 183 -27 41 -73 53 -196 53 -109
0 -112 0 -95 19 38 42 177 101 271 114 56 9 160 -5 234 -29z m-461 -654 c123
0 198 14 238 45 l34 26 0 -216 0 -217 120 4 c95 2 117 1 104 -9 -25 -18 -146
-43 -211 -43 -238 0 -466 180 -528 417 -41 156 1 341 106 473 l44 55 3 -267 2
-268 88 0z m137 510 c119 -27 108 -163 -16 -189 -27 -6 -75 -11 -104 -11 l-55
0 0 105 0 105 68 0 c37 0 85 -5 107 -10z m37 -256 c18 -11 41 -37 52 -57 16
-34 17 -42 5 -74 -24 -62 -55 -77 -169 -81 l-100 -4 0 122 0 123 89 -5 c63 -4
100 -11 123 -24z m317 -103 c58 -12 86 -40 86 -90 0 -76 -78 -117 -205 -109
l-55 3 -3 89 c-2 49 -1 95 2 103 6 15 104 17 175 4z m-7 -242 c73 -16 108 -52
108 -114 0 -87 -61 -120 -210 -113 l-65 3 -3 104 c-1 58 0 111 2 118 7 16 95
17 168 2z"/>
</g>
</svg>
