<?xml version="1.0" standalone="no"?>
<!DOCTYPE svg PUBLIC "-//W3C//DTD SVG 20010904//EN"
 "http://www.w3.org/TR/2001/REC-SVG-20010904/DTD/svg10.dtd">
<svg version="1.0" xmlns="http://www.w3.org/2000/svg"
 width="389.000000pt" height="35.000000pt" viewBox="0 0 389.000000 35.000000"
 preserveAspectRatio="xMidYMid meet">

<g transform="translate(0.000000,35.000000) scale(0.100000,-0.100000)"
fill="#000000" stroke="none">
<path d="M2374 331 c-72 -45 -73 -196 -2 -245 38 -27 95 -21 130 15 24 24 28
33 18 39 -10 6 -17 2 -25 -13 -15 -32 -57 -49 -89 -38 -79 31 -87 195 -10 230
38 17 53 14 86 -19 33 -34 38 -36 38 -17 0 23 -45 58 -81 63 -23 3 -44 -1 -65
-15z"/>
<path d="M0 205 l0 -135 55 0 c72 0 122 21 127 52 6 41 -4 69 -28 80 l-24 11
25 23 c30 28 32 57 5 84 -16 16 -33 20 -90 20 l-70 0 0 -135z m119 116 c34 -9
45 -44 22 -72 -14 -18 -29 -23 -67 -23 l-49 -1 -3 39 c-2 21 -1 44 2 52 6 15
52 17 95 5z m6 -125 c29 -12 35 -20 35 -44 0 -44 -29 -64 -86 -60 l-49 3 -3
44 c-2 24 -1 50 2 57 7 18 57 18 101 0z"/>
<path d="M260 204 l0 -136 69 4 c83 4 111 23 111 75 0 27 -6 37 -29 50 l-29
17 24 19 c15 12 24 29 24 47 0 47 -22 60 -101 60 l-69 0 0 -136z m137 103 c25
-25 9 -63 -32 -77 -59 -19 -80 -11 -83 34 -5 61 2 69 54 63 25 -2 53 -12 61
-20z m5 -127 c39 -48 5 -90 -72 -90 l-50 0 0 53 c0 30 3 57 8 61 15 16 96 -1
114 -24z"/>
<path d="M637 205 c-32 -94 -42 -135 -33 -135 8 0 19 20 26 45 l13 46 55 -3
c55 -3 56 -4 65 -38 5 -19 13 -39 18 -44 24 -25 17 14 -22 133 -57 173 -63
173 -122 -4z m87 42 c10 -32 15 -61 13 -64 -3 -2 -23 -3 -45 -1 l-39 3 20 68
c11 37 23 64 27 60 3 -4 14 -34 24 -66z"/>
<path d="M1240 315 c0 -8 7 -15 15 -15 8 0 15 7 15 15 0 8 -7 15 -15 15 -8 0
-15 -7 -15 -15z"/>
<path d="M1540 290 c0 -20 -5 -30 -15 -30 -8 0 -15 -4 -15 -10 0 -5 7 -10 15
-10 12 0 15 -14 15 -69 0 -90 5 -101 44 -101 l31 0 -25 13 c-23 11 -25 19 -28
85 -3 71 -3 72 23 72 14 0 25 5 25 10 0 6 -11 10 -25 10 -21 0 -25 5 -25 30 0
17 -4 30 -10 30 -5 0 -10 -13 -10 -30z"/>
<path d="M2100 290 c0 -20 -5 -30 -15 -30 -8 0 -15 -4 -15 -10 0 -5 7 -10 15
-10 12 0 15 -14 15 -69 0 -90 5 -101 44 -101 l31 0 -25 13 c-23 11 -25 19 -28
85 -3 71 -3 72 23 72 14 0 25 5 25 10 0 6 -11 10 -25 10 -21 0 -25 5 -25 30 0
17 -4 30 -10 30 -5 0 -10 -13 -10 -30z"/>
<path d="M865 244 c-23 -23 -15 -56 18 -71 15 -7 39 -19 55 -26 34 -16 35 -37
0 -56 -25 -14 -29 -14 -57 7 -21 15 -31 18 -31 9 0 -24 23 -37 65 -37 48 0 65
13 65 51 0 31 -14 45 -55 55 -57 13 -73 44 -34 65 18 9 26 7 49 -9 32 -24 48
-17 23 10 -20 23 -76 24 -98 2z"/>
<path d="M1056 244 c-9 -8 -16 -24 -16 -34 0 -21 35 -50 61 -50 9 0 27 -9 40
-19 23 -19 24 -19 5 -40 -24 -26 -50 -27 -76 -1 -24 24 -30 25 -30 5 0 -39
100 -49 124 -12 25 37 10 65 -42 80 -57 17 -76 42 -48 63 27 19 42 18 65 -7
11 -12 21 -16 25 -11 21 34 -77 57 -108 26z"/>
<path d="M1240 165 c0 -57 4 -95 10 -95 6 0 10 38 10 95 0 57 -4 95 -10 95 -6
0 -10 -38 -10 -95z"/>
<path d="M1346 244 c-9 -8 -16 -24 -16 -34 0 -21 35 -50 61 -50 9 0 27 -9 40
-20 l24 -20 -24 -20 c-29 -25 -46 -25 -71 0 -24 24 -30 25 -30 5 0 -20 32 -35
72 -35 43 0 58 15 58 57 0 29 -4 33 -42 44 -71 20 -89 47 -47 70 18 9 26 7 49
-9 32 -24 48 -17 23 10 -20 22 -76 24 -97 2z"/>
<path d="M1675 240 c-26 -29 -12 -36 22 -10 32 23 57 19 74 -12 14 -25 -2 -38
-46 -38 -43 0 -75 -25 -75 -59 0 -15 5 -32 12 -39 17 -17 69 -15 96 4 20 14
22 14 22 0 0 -9 4 -16 9 -16 12 0 1 161 -12 178 -16 20 -81 15 -102 -8z m105
-90 c0 -22 -41 -70 -60 -70 -23 0 -50 21 -50 40 0 26 37 50 77 50 27 0 33 -4
33 -20z"/>
<path d="M1870 165 c0 -57 4 -95 10 -95 6 0 10 28 10 65 0 76 22 108 68 103
27 -3 27 -4 30 -85 2 -46 7 -83 12 -83 15 0 12 164 -2 178 -17 17 -54 15 -83
-4 -23 -15 -25 -15 -25 0 0 9 -4 16 -10 16 -6 0 -10 -38 -10 -95z"/>
<path d="M2608 249 c-42 -24 -41 -146 2 -169 62 -33 120 9 120 87 0 72 -65
116 -122 82z m77 -24 c57 -56 4 -173 -59 -131 -42 27 -41 112 1 144 23 17 30
15 58 -13z"/>
<path d="M2801 168 c-1 -60 3 -98 9 -98 6 0 10 29 10 68 0 74 16 102 57 102
27 0 33 -18 33 -101 0 -39 4 -69 10 -69 6 0 10 29 10 68 0 77 18 106 62 100
22 -3 23 -8 26 -85 2 -46 7 -83 12 -83 15 0 12 164 -2 178 -16 16 -49 15 -75
-3 -18 -13 -22 -13 -33 0 -16 19 -64 19 -80 0 -16 -20 -27 -19 -33 3 -3 9 -5
-27 -6 -80z"/>
<path d="M3120 130 c0 -80 4 -130 10 -130 6 0 10 20 10 45 0 42 2 45 19 35 58
-30 111 11 111 85 0 74 -53 115 -111 85 -13 -7 -19 -7 -19 0 0 5 -4 10 -10 10
-6 0 -10 -50 -10 -130z m120 80 c18 -33 12 -79 -14 -105 -42 -42 -86 -11 -86
61 0 75 68 105 100 44z"/>
<path d="M3349 239 c-29 -29 -16 -35 20 -8 26 19 34 21 56 11 48 -22 27 -62
-31 -62 -43 0 -64 -18 -64 -53 0 -18 5 -38 12 -45 17 -17 68 -15 90 5 17 15
18 15 18 0 0 -10 5 -17 10 -17 6 0 10 33 10 79 0 59 -4 84 -16 95 -22 23 -80
20 -105 -5z m101 -93 c0 -25 -41 -66 -66 -66 -18 0 -44 39 -37 57 7 18 39 32
76 32 22 1 27 -3 27 -23z"/>
<path d="M3550 165 c0 -57 4 -95 10 -95 6 0 10 29 10 68 0 74 16 102 56 102
35 0 44 -21 44 -97 0 -42 4 -73 10 -73 13 0 13 146 0 171 -13 23 -57 25 -88 3
-20 -14 -22 -14 -22 0 0 9 -4 16 -10 16 -6 0 -10 -38 -10 -95z"/>
<path d="M3776 164 c32 -90 34 -98 19 -120 -8 -13 -25 -24 -37 -24 -15 0 -19
-3 -12 -10 15 -15 59 3 69 27 23 59 75 207 75 214 0 5 -4 9 -8 9 -5 0 -19 -34
-32 -75 -13 -41 -26 -75 -30 -75 -4 0 -17 34 -30 75 -13 42 -29 75 -36 75 -9
0 -2 -30 22 -96z"/>
</g>
</svg>
